<svg width="61" height="61" viewBox="0 0 61 61" fill="none" xmlns="http://www.w3.org/2000/svg">
<path fill-rule="evenodd" clip-rule="evenodd" d="M18.6251 17.4535V14.5285C18.6255 13.481 19.0016 12.4685 19.6851 11.6748C20.3687 10.8812 21.3143 10.3591 22.3501 10.2035L25.4001 9.74598C28.7813 9.2406 32.2189 9.2406 35.6001 9.74598L38.6501 10.2035C39.6859 10.3591 40.6315 10.8812 41.3151 11.6748C41.9986 12.4685 42.3748 13.481 42.3751 14.5285V17.4535L46.6601 17.7985C48.2544 17.9273 49.7594 18.5869 50.9346 19.6719C52.1097 20.7569 52.8872 22.2046 53.1426 23.7835C54.3069 30.9649 54.3069 38.287 53.1426 45.4685C52.8872 47.0474 52.1097 48.4951 50.9346 49.5801C49.7594 50.6651 48.2544 51.3247 46.6601 51.4535L41.9801 51.8285C34.3392 52.4461 26.661 52.4461 19.0201 51.8285L14.3401 51.4535C12.7458 51.3247 11.2408 50.6651 10.0656 49.5801C8.89047 48.4951 8.11302 47.0474 7.8576 45.4685C6.6933 38.287 6.6933 30.9649 7.8576 23.7835C8.11353 22.205 8.89119 20.7579 10.0663 19.6734C11.2415 18.5889 12.7462 17.9297 14.3401 17.801L18.6251 17.4535ZM25.9576 13.4535C28.9692 13.0037 32.031 13.0037 35.0426 13.4535L38.0926 13.911C38.2406 13.9331 38.3757 14.0076 38.4734 14.1209C38.5711 14.2342 38.625 14.3789 38.6251 14.5285V17.191C33.2128 16.8819 27.7874 16.8819 22.3751 17.191V14.526C22.3753 14.3764 22.4291 14.2317 22.5268 14.1184C22.6245 14.0051 22.7596 13.9306 22.9076 13.9085L25.9576 13.4535ZM19.3226 21.1585C26.7626 20.5585 34.2376 20.5585 41.6776 21.1585L46.3576 21.5385C47.116 21.5992 47.8321 21.9125 48.3914 22.4282C48.9507 22.944 49.3208 23.6325 49.4426 24.3835C49.5976 25.3451 49.7309 26.3101 49.8426 27.2785C43.8249 30.2404 37.2073 31.7808 30.5001 31.7808C23.7929 31.7808 17.1753 30.2404 11.1576 27.2785C11.2676 26.3118 11.4009 25.3468 11.5576 24.3835C11.6794 23.6325 12.0495 22.944 12.6088 22.4282C13.1681 21.9125 13.8842 21.5992 14.6426 21.5385L19.3226 21.1585ZM10.8226 31.2685C17.0023 34.0776 23.7119 35.5311 30.5001 35.5311C37.2883 35.5311 43.9979 34.0776 50.1776 31.2685C50.417 35.8151 50.1707 40.3742 49.4426 44.8685C49.3213 45.6199 48.9514 46.309 48.3921 46.8253C47.8328 47.3415 47.1164 47.6552 46.3576 47.716L41.6776 48.091C34.2376 48.691 26.7626 48.691 19.3226 48.091L14.6426 47.716C13.8839 47.6552 13.1675 47.3415 12.6081 46.8253C12.0488 46.309 11.6789 45.6199 11.5576 44.8685C10.8301 40.3685 10.5826 35.8085 10.8226 31.2685Z" fill="white"/>
</svg>
