<svg width="60" height="61" viewBox="0 0 60 61" fill="none" xmlns="http://www.w3.org/2000/svg">
<path d="M30.1912 7.93188H30.525C33.6075 7.94313 49.2262 8.05564 53.4375 9.18814C54.7106 9.53377 55.8707 10.2075 56.8018 11.1419C57.733 12.0764 58.4026 13.2388 58.7438 14.5131C59.1225 15.9381 59.3888 17.8244 59.5688 19.7706L59.6063 20.1606L59.6888 21.1356L59.7188 21.5256C59.9625 24.9531 59.9925 28.1631 59.9963 28.8644V29.1456C59.9925 29.8731 59.9587 33.3006 59.6888 36.8706L59.6588 37.2644L59.625 37.6544C59.4375 39.7994 59.16 41.9294 58.7438 43.4969C58.4026 44.7712 57.733 45.9337 56.8018 46.8681C55.8707 47.8026 54.7106 48.4763 53.4375 48.8219C49.0875 49.9919 32.5537 50.0744 30.2625 50.0781H29.73C28.5712 50.0781 23.7787 50.0556 18.7537 49.8831L18.1162 49.8606L17.79 49.8456L17.1488 49.8194L16.5075 49.7931C12.345 49.6094 8.38125 49.3131 6.555 48.8181C5.28235 48.4728 4.12256 47.7997 3.19144 46.8659C2.26032 45.9322 1.59046 44.7705 1.24875 43.4969C0.8325 41.9331 0.555 39.7994 0.3675 37.6544L0.3375 37.2606L0.3075 36.8706C0.121363 34.3297 0.0188074 31.7833 0 29.2356L0 28.7744C0.0075 27.9681 0.0375 25.1819 0.24 22.1069L0.26625 21.7206L0.2775 21.5256L0.3075 21.1356L0.39 20.1606L0.4275 19.7706C0.6075 17.8244 0.87375 15.9344 1.2525 14.5131C1.59364 13.2388 2.26325 12.0764 3.1944 11.1419C4.12556 10.2075 5.28565 9.53377 6.55875 9.18814C8.385 8.70064 12.3487 8.40063 16.5112 8.21313L17.1488 8.18688L17.7937 8.16439L18.1162 8.15314L18.7575 8.12689C22.3264 8.01215 25.8968 7.94839 29.4675 7.93563L30.1912 7.93188ZM24 19.9694V38.0369L39.5887 29.0069L24 19.9694Z" fill="#FF0000"/>
</svg>
