<svg width="60" height="61" viewBox="0 0 60 61" fill="none" xmlns="http://www.w3.org/2000/svg">
<path d="M54.6798 2.69971H5.3251C3.63459 2.69971 2.26416 4.07014 2.26416 5.76064V55.1153C2.26416 56.8058 3.63459 58.1763 5.3251 58.1763H54.6798C56.3703 58.1763 57.7407 56.8058 57.7407 55.1153V5.76064C57.7407 4.07014 56.3703 2.69971 54.6798 2.69971Z" fill="#3D5A98"/>
<path d="M40.5374 58.1717V36.6888H47.7468L48.8249 28.317H40.5374V22.9732C40.5374 20.5498 41.2124 18.8951 44.6858 18.8951H49.1202V11.3951C46.9729 11.1717 44.815 11.0653 42.6562 11.0763C36.2718 11.0763 31.8749 14.967 31.8749 22.1435V28.317H24.6655V36.6888H31.8749V58.1717H40.5374Z" fill="white"/>
</svg>
