<svg width="100" height="101" viewBox="0 0 100 101" fill="none" xmlns="http://www.w3.org/2000/svg">
<g clip-path="url(#clip0_183_89)">
<path d="M100 50.0264C100 22.4123 77.6141 0.0263672 50 0.0263672C22.3859 0.0263672 0 22.4123 0 50.0264C0 74.9826 18.2844 95.6682 42.1875 99.4189V64.4795H29.4922V50.0264H42.1875V39.0107C42.1875 26.4795 49.6523 19.5576 61.0734 19.5576C66.5438 19.5576 72.2656 20.5342 72.2656 20.5342V32.8389H65.9609C59.7496 32.8389 57.8125 36.6932 57.8125 40.6475V50.0264H71.6797L69.4629 64.4795H57.8125V99.4189C81.7156 95.6682 100 74.983 100 50.0264Z" fill="#1877F2"/>
<path d="M69.4629 64.4795L71.6797 50.0264H57.8125V40.6475C57.8125 36.6928 59.7496 32.8389 65.9609 32.8389H72.2656V20.5342C72.2656 20.5342 66.5438 19.5576 61.073 19.5576C49.6523 19.5576 42.1875 26.4795 42.1875 39.0107V50.0264H29.4922V64.4795H42.1875V99.4189C44.772 99.8239 47.384 100.027 50 100.026C52.616 100.027 55.228 99.8239 57.8125 99.4189V64.4795H69.4629Z" fill="white"/>
</g>
<defs>
<clipPath id="clip0_183_89">
<rect width="100" height="100" fill="white" transform="translate(0 0.0263672)"/>
</clipPath>
</defs>
</svg>
