<svg width="60" height="61" viewBox="0 0 60 61" fill="none" xmlns="http://www.w3.org/2000/svg">
<path d="M47.625 12.775C45.3327 10.4603 42.6026 8.62493 39.5938 7.37592C36.585 6.12691 33.3577 5.48922 30.1 5.50001C16.45 5.50001 5.325 16.625 5.325 30.275C5.325 34.65 6.475 38.9 8.625 42.65L5.125 55.5L18.25 52.05C21.875 54.025 25.95 55.075 30.1 55.075C43.75 55.075 54.875 43.95 54.875 30.3C54.875 23.675 52.3 17.45 47.625 12.775ZM30.1 50.875C26.4 50.875 22.775 49.875 19.6 48L18.85 47.55L11.05 49.6L13.125 42L12.625 41.225C10.5689 37.9427 9.47731 34.1482 9.475 30.275C9.475 18.925 18.725 9.67501 30.075 9.67501C35.575 9.67501 40.75 11.825 44.625 15.725C46.544 17.6347 48.0648 19.9064 49.0991 22.4083C50.1333 24.9103 50.6605 27.5927 50.65 30.3C50.7 41.65 41.45 50.875 30.1 50.875ZM41.4 35.475C40.775 35.175 37.725 33.675 37.175 33.45C36.6 33.25 36.2 33.15 35.775 33.75C35.35 34.375 34.175 35.775 33.825 36.175C33.475 36.6 33.1 36.65 32.475 36.325C31.85 36.025 29.85 35.35 27.5 33.25C25.65 31.6 24.425 29.575 24.05 28.95C23.7 28.325 24 28 24.325 27.675C24.6 27.4 24.95 26.95 25.25 26.6C25.55 26.25 25.675 25.975 25.875 25.575C26.075 25.15 25.975 24.8 25.825 24.5C25.675 24.2 24.425 21.15 23.925 19.9C23.425 18.7 22.9 18.85 22.525 18.825H21.325C20.9 18.825 20.25 18.975 19.675 19.6C19.125 20.225 17.525 21.725 17.525 24.775C17.525 27.825 19.75 30.775 20.05 31.175C20.35 31.6 24.425 37.85 30.625 40.525C32.1 41.175 33.25 41.55 34.15 41.825C35.625 42.3 36.975 42.225 38.05 42.075C39.25 41.9 41.725 40.575 42.225 39.125C42.75 37.675 42.75 36.45 42.575 36.175C42.4 35.9 42.025 35.775 41.4 35.475Z" fill="#043D4E"/>
</svg>
