<svg width="65" height="66" viewBox="0 0 65 66" fill="none" xmlns="http://www.w3.org/2000/svg">
<path d="M54.1665 49.25H48.7498V25.5521L32.4998 35.7083L16.2498 25.5521V49.25H10.8332V16.75H14.0832L32.4998 28.2604L50.9165 16.75H54.1665M54.1665 11.3333H10.8332C7.82692 11.3333 5.4165 13.7437 5.4165 16.75V49.25C5.4165 50.6866 5.98719 52.0643 7.00301 53.0801C8.01883 54.096 9.39658 54.6666 10.8332 54.6666H54.1665C55.6031 54.6666 56.9808 54.096 57.9967 53.0801C59.0125 52.0643 59.5832 50.6866 59.5832 49.25V16.75C59.5832 15.3134 59.0125 13.9356 57.9967 12.9198C56.9808 11.904 55.6031 11.3333 54.1665 11.3333Z" fill="#043D4E"/>
</svg>
