<svg width="66" height="51" viewBox="0 0 66 51" fill="none" xmlns="http://www.w3.org/2000/svg">
<path d="M55 37.1875C56.0593 37.1879 57.0779 37.5032 57.8446 38.0681C58.6112 38.633 59.0673 39.4042 59.1182 40.2218C59.1691 41.0395 58.811 41.8409 58.118 42.4601C57.4251 43.0792 56.4504 43.4686 55.396 43.5476L55 43.5625H11C9.94065 43.5621 8.92211 43.2468 8.15544 42.6819C7.38876 42.117 6.93272 41.3458 6.88181 40.5282C6.8309 39.7105 7.18903 38.9091 7.88198 38.2899C8.57494 37.6708 9.5496 37.2814 10.604 37.2024L11 37.1875H55ZM55 22.3125C56.094 22.3125 57.1432 22.6483 57.9168 23.2461C58.6904 23.8439 59.125 24.6546 59.125 25.5C59.125 26.3454 58.6904 27.1561 57.9168 27.7539C57.1432 28.3517 56.094 28.6875 55 28.6875H11C9.90598 28.6875 8.85677 28.3517 8.08318 27.7539C7.3096 27.1561 6.875 26.3454 6.875 25.5C6.875 24.6546 7.3096 23.8439 8.08318 23.2461C8.85677 22.6483 9.90598 22.3125 11 22.3125H55ZM55 7.4375C56.094 7.4375 57.1432 7.77333 57.9168 8.3711C58.6904 8.96887 59.125 9.77962 59.125 10.625C59.125 11.4704 58.6904 12.2811 57.9168 12.8789C57.1432 13.4767 56.094 13.8125 55 13.8125H11C9.90598 13.8125 8.85677 13.4767 8.08318 12.8789C7.3096 12.2811 6.875 11.4704 6.875 10.625C6.875 9.77962 7.3096 8.96887 8.08318 8.3711C8.85677 7.77333 9.90598 7.4375 11 7.4375H55Z" fill="#043D4E"/>
</svg>
