<svg width="60" height="53" viewBox="0 0 60 53" fill="none" xmlns="http://www.w3.org/2000/svg">
<path d="M29.8226 52.5157C24.6176 52.4764 19.7935 51.2333 15.3503 48.7862C10.9071 46.3392 7.38686 43.1092 4.78969 39.0962C2.24241 35.0398 0.986133 30.7078 1.02086 26.1004C1.05526 21.5368 2.40098 17.2903 5.05802 13.3608C7.71539 9.38749 11.2835 6.2548 15.7625 3.96276C20.2418 1.62683 25.0839 0.478485 30.2889 0.517715C35.5434 0.55732 40.3678 1.75658 44.7622 4.11551C49.1565 6.47443 52.6274 9.66018 55.175 13.6727C57.7725 17.6418 59.0539 21.9301 59.0192 26.5375C58.9835 31.2766 57.6368 35.6548 54.9791 39.672C52.3713 43.6457 48.8277 46.8005 44.3485 49.1365C39.9191 51.4289 35.0771 52.5553 29.8226 52.5157ZM29.837 50.6069C34.5958 50.6427 39.0158 49.6009 43.0968 47.4814C47.1782 45.318 50.4225 42.4023 52.8297 38.7343C55.2868 35.0227 56.5317 30.9949 56.5644 26.6507C56.5969 22.3504 55.4372 18.3483 53.0856 14.6444C50.734 10.9405 47.5338 7.99811 43.4852 5.81732C39.4369 3.59266 35.0333 2.46239 30.2745 2.42652C25.4661 2.39028 21.0212 3.45385 16.9398 5.61725C12.8587 7.73676 9.58984 10.6303 7.13306 14.298C4.72586 17.966 3.50606 21.9502 3.47364 26.2505C3.4409 30.5947 4.60018 34.6407 6.95149 38.3885C9.3527 42.0927 12.5775 45.0572 16.6258 47.2819C20.6744 49.4627 25.0781 50.571 29.837 50.6069Z" fill="#54757E"/>
<path d="M57.1976 51.4055L54.5951 51.3859L44.1783 32.4815L14.5843 32.2585L4.10678 51.0054L1.50429 50.9857L29.6948 0.644889L57.1976 51.4055ZM43.3004 30.566L29.5103 5.38287L15.6397 30.3575L43.3004 30.566Z" fill="#54757E"/>
</svg>
