<svg width="60" height="61" viewBox="0 0 60 61" fill="none" xmlns="http://www.w3.org/2000/svg">
<path fill-rule="evenodd" clip-rule="evenodd" d="M11.25 4.18567C9.26088 4.18567 7.35322 4.97585 5.9467 6.38237C4.54018 7.78889 3.75 9.69655 3.75 11.6857V49.1857C3.75 51.1748 4.54018 53.0824 5.9467 54.489C7.35322 55.8955 9.26088 56.6857 11.25 56.6857H48.75C50.7391 56.6857 52.6468 55.8955 54.0533 54.489C55.4598 53.0824 56.25 51.1748 56.25 49.1857V11.6857C56.25 9.69655 55.4598 7.78889 54.0533 6.38237C52.6468 4.97585 50.7391 4.18567 48.75 4.18567H11.25ZM15.3825 20.2994C16.571 20.2994 17.7108 19.8273 18.5512 18.9869C19.3916 18.1465 19.8638 17.0067 19.8638 15.8182C19.8638 14.6297 19.3916 13.4898 18.5512 12.6494C17.7108 11.809 16.571 11.3369 15.3825 11.3369C14.194 11.3369 13.0542 11.809 12.2138 12.6494C11.3734 13.4898 10.9013 14.6297 10.9013 15.8182C10.9013 17.0067 11.3734 18.1465 12.2138 18.9869C13.0542 19.8273 14.194 20.2994 15.3825 20.2994ZM19.1325 48.4844V23.8132H11.6325V48.4844H19.1325ZM24.1125 23.8132H31.6125V27.1169C32.7188 25.3844 35.1488 23.0519 39.6675 23.0519C45.06 23.0519 47.9888 26.6257 47.9888 33.4244C47.9888 33.7507 48.0188 35.2394 48.0188 35.2394V48.4807H40.5188V35.2432C40.5188 33.4244 40.1362 29.8507 36.0938 29.8507C32.0475 29.8507 31.7063 34.3432 31.6125 37.2832V48.4807H24.1125V23.8132Z" fill="#54757E"/>
</svg>
