<svg width="60" height="61" viewBox="0 0 60 61" fill="none" xmlns="http://www.w3.org/2000/svg">
<path d="M47.5 10.5H42.5V8C42.5 7.33696 42.2366 6.70107 41.7678 6.23223C41.2989 5.76339 40.663 5.5 40 5.5C39.337 5.5 38.7011 5.76339 38.2322 6.23223C37.7634 6.70107 37.5 7.33696 37.5 8V10.5H22.5V8C22.5 7.33696 22.2366 6.70107 21.7678 6.23223C21.2989 5.76339 20.663 5.5 20 5.5C19.337 5.5 18.7011 5.76339 18.2322 6.23223C17.7634 6.70107 17.5 7.33696 17.5 8V10.5H12.5C10.5109 10.5 8.60322 11.2902 7.1967 12.6967C5.79018 14.1032 5 16.0109 5 18V48C5 49.9891 5.79018 51.8968 7.1967 53.3033C8.60322 54.7098 10.5109 55.5 12.5 55.5H47.5C49.4891 55.5 51.3968 54.7098 52.8033 53.3033C54.2098 51.8968 55 49.9891 55 48V18C55 16.0109 54.2098 14.1032 52.8033 12.6967C51.3968 11.2902 49.4891 10.5 47.5 10.5ZM50 48C50 48.663 49.7366 49.2989 49.2678 49.7678C48.7989 50.2366 48.163 50.5 47.5 50.5H12.5C11.837 50.5 11.2011 50.2366 10.7322 49.7678C10.2634 49.2989 10 48.663 10 48V30.5H50V48ZM50 25.5H10V18C10 17.337 10.2634 16.7011 10.7322 16.2322C11.2011 15.7634 11.837 15.5 12.5 15.5H17.5V18C17.5 18.663 17.7634 19.2989 18.2322 19.7678C18.7011 20.2366 19.337 20.5 20 20.5C20.663 20.5 21.2989 20.2366 21.7678 19.7678C22.2366 19.2989 22.5 18.663 22.5 18V15.5H37.5V18C37.5 18.663 37.7634 19.2989 38.2322 19.7678C38.7011 20.2366 39.337 20.5 40 20.5C40.663 20.5 41.2989 20.2366 41.7678 19.7678C42.2366 19.2989 42.5 18.663 42.5 18V15.5H47.5C48.163 15.5 48.7989 15.7634 49.2678 16.2322C49.7366 16.7011 50 17.337 50 18V25.5Z" fill="#043D4E"/>
</svg>
