<svg width="100" height="101" viewBox="0 0 100 101" fill="none" xmlns="http://www.w3.org/2000/svg">
<path d="M2.13379 49.4279C2.13145 57.8299 4.34395 66.0337 8.55098 73.2647L1.73145 97.9709L27.2127 91.3415C34.2605 95.1484 42.157 97.1432 50.1814 97.1438H50.2025C76.6928 97.1438 98.2564 75.7551 98.2678 49.4655C98.2729 36.7264 93.2775 24.7473 84.2018 15.7349C75.1275 6.72327 63.0592 1.75777 50.2006 1.75195C23.7072 1.75195 2.14512 23.1396 2.13418 49.4279" fill="url(#paint0_linear_183_121)"/>
<path d="M37.7646 28.7662C36.8326 26.7107 35.8518 26.6693 34.9654 26.6332C34.2396 26.6022 33.41 26.6045 32.5811 26.6045C31.7514 26.6045 30.4033 26.9142 29.2639 28.1487C28.1232 29.3844 24.9092 32.3704 24.9092 38.4437C24.9092 44.5169 29.3674 50.3867 29.9889 51.2111C30.6111 52.034 38.5955 64.896 51.2408 69.8441C61.7502 73.9561 63.8889 73.1382 66.1697 72.932C68.451 72.7266 73.5307 69.9468 74.567 67.0642C75.6041 64.182 75.6041 61.7115 75.2932 61.1952C74.9822 60.6809 74.1525 60.372 72.9084 59.7549C71.6643 59.1379 65.5475 56.151 64.4072 55.739C63.2666 55.3274 62.4373 55.122 61.6076 56.358C60.7779 57.5921 58.3955 60.372 57.6693 61.1952C56.9439 62.0204 56.2178 62.1231 54.974 61.5057C53.7291 60.8863 49.7225 59.5844 44.9689 55.3793C41.2705 52.1072 38.7736 48.0665 38.0479 46.8305C37.3221 45.5964 37.9701 44.9274 38.5939 44.3123C39.1529 43.7592 39.8385 42.8708 40.4611 42.1503C41.0814 41.4293 41.2885 40.915 41.7033 40.0917C42.1186 39.2677 41.9107 38.5468 41.6002 37.9293C41.2885 37.3119 38.8709 31.2069 37.7646 28.7662Z" fill="white"/>
<defs>
<linearGradient id="paint0_linear_183_121" x1="4828.55" y1="9623.65" x2="4828.55" y2="1.75195" gradientUnits="userSpaceOnUse">
<stop stop-color="#1FAF38"/>
<stop offset="1" stop-color="#60D669"/>
</linearGradient>
</defs>
</svg>
