<svg width="100" height="101" viewBox="0 0 100 101" fill="none" xmlns="http://www.w3.org/2000/svg">
<g clip-path="url(#clip0_183_134)">
<path d="M27.8701 25.833L63.983 74.1079H72.1605L36.0477 25.833H27.8701Z" fill="black"/>
<path d="M49.9438 0.576172C22.6638 0.576172 0.549316 22.6907 0.549316 49.9707C0.549316 77.2508 22.6638 99.3652 49.9438 99.3652C77.2239 99.3652 99.3384 77.2508 99.3384 49.9707C99.3384 22.6907 77.2239 0.576172 49.9438 0.576172ZM62.0532 77.9653L45.6125 55.9826L25.2641 77.9653H20.0338L43.2756 52.8575L20.1798 21.9761H37.9805L53.1216 42.2212L71.8608 21.9761H77.0911L55.4585 45.3474L79.8539 77.9653H62.0532Z" fill="black"/>
</g>
<defs>
<clipPath id="clip0_183_134">
<rect width="100" height="100" fill="white" transform="translate(0 0.0263672)"/>
</clipPath>
</defs>
</svg>
